<mxfile host="Electron" modified="2023-04-27T16:10:35.559Z" agent="Mozilla/5.0 (Windows NT 10.0; Win64; x64) AppleWebKit/537.36 (KHTML, like Gecko) draw.io/21.1.2 Chrome/106.0.5249.199 Electron/21.4.3 Safari/537.36" etag="oli_KIGAWmL-Ykm0X8Gz" version="21.1.2" type="device">
  <diagram name="Sayfa -1" id="JsXLnfwoRdqToKwUpFPo">
    <mxGraphModel dx="2474" dy="1246" grid="1" gridSize="10" guides="1" tooltips="1" connect="1" arrows="1" fold="1" page="0" pageScale="1" pageWidth="827" pageHeight="1169" background="#f1f3f4" math="0" shadow="0">
      <root>
        <mxCell id="0" />
        <mxCell id="1" parent="0" />
        <mxCell id="ettVCxE4RoPoc0jnoljM-1" value="0" style="rounded=0;whiteSpace=wrap;html=1;fontSize=16;" parent="1" vertex="1">
          <mxGeometry x="-160" y="280" width="40" height="40" as="geometry" />
        </mxCell>
        <mxCell id="ettVCxE4RoPoc0jnoljM-2" value="4&lt;br&gt;(0,98)" style="rounded=0;whiteSpace=wrap;html=1;fontSize=16;fillColor=#ffe6cc;strokeColor=#d79b00;" parent="1" vertex="1">
          <mxGeometry x="100" y="280" width="40" height="40" as="geometry" />
        </mxCell>
        <mxCell id="ettVCxE4RoPoc0jnoljM-3" value="1&lt;br&gt;(2,07)" style="rounded=0;whiteSpace=wrap;html=1;fontSize=16;fillColor=#ffe6cc;strokeColor=#d79b00;" parent="1" vertex="1">
          <mxGeometry x="-80" y="280" width="40" height="40" as="geometry" />
        </mxCell>
        <mxCell id="ettVCxE4RoPoc0jnoljM-4" value="9&lt;br&gt;(3,10)" style="rounded=0;whiteSpace=wrap;html=1;fontSize=16;fillColor=#dae8fc;strokeColor=#6c8ebf;" parent="1" vertex="1">
          <mxGeometry x="300" y="280" width="40" height="40" as="geometry" />
        </mxCell>
        <mxCell id="ettVCxE4RoPoc0jnoljM-5" value="7&lt;br&gt;(4)" style="rounded=0;whiteSpace=wrap;html=1;fontSize=16;fillColor=#dae8fc;strokeColor=#6c8ebf;" parent="1" vertex="1">
          <mxGeometry x="240" y="280" width="40" height="40" as="geometry" />
        </mxCell>
        <mxCell id="ettVCxE4RoPoc0jnoljM-6" value="6&lt;br&gt;(3)" style="rounded=0;whiteSpace=wrap;html=1;fontSize=16;fillColor=#dae8fc;strokeColor=#6c8ebf;" parent="1" vertex="1">
          <mxGeometry x="240" y="230" width="40" height="40" as="geometry" />
        </mxCell>
        <mxCell id="ettVCxE4RoPoc0jnoljM-7" value="2&lt;br&gt;(1,27)" style="rounded=0;whiteSpace=wrap;html=1;fontSize=16;fillColor=#ffe6cc;strokeColor=#d79b00;" parent="1" vertex="1">
          <mxGeometry x="-20" y="280" width="40" height="40" as="geometry" />
        </mxCell>
        <mxCell id="ettVCxE4RoPoc0jnoljM-8" value="16&lt;br&gt;(3,08)" style="rounded=0;whiteSpace=wrap;html=1;fontSize=16;fillColor=#d5e8d4;strokeColor=#82b366;" parent="1" vertex="1">
          <mxGeometry x="720" y="280" width="40" height="40" as="geometry" />
        </mxCell>
        <mxCell id="ettVCxE4RoPoc0jnoljM-9" value="5&lt;br&gt;(1,03)" style="rounded=0;whiteSpace=wrap;html=1;fontSize=16;fillColor=#ffe6cc;strokeColor=#d79b00;" parent="1" vertex="1">
          <mxGeometry x="160" y="280" width="40" height="40" as="geometry" />
        </mxCell>
        <mxCell id="ettVCxE4RoPoc0jnoljM-10" value="12&lt;br&gt;(3,07)" style="rounded=0;whiteSpace=wrap;html=1;fontSize=16;fillColor=#f8cecc;strokeColor=#b85450;" parent="1" vertex="1">
          <mxGeometry x="510" y="280" width="40" height="40" as="geometry" />
        </mxCell>
        <mxCell id="ettVCxE4RoPoc0jnoljM-11" value="10&lt;br&gt;(2,03)" style="rounded=0;whiteSpace=wrap;html=1;fontSize=16;fillColor=#dae8fc;strokeColor=#6c8ebf;" parent="1" vertex="1">
          <mxGeometry x="360" y="280" width="40" height="40" as="geometry" />
        </mxCell>
        <mxCell id="ettVCxE4RoPoc0jnoljM-12" value="8&lt;br&gt;(4,10)" style="rounded=0;whiteSpace=wrap;html=1;fontSize=16;fillColor=#dae8fc;strokeColor=#6c8ebf;" parent="1" vertex="1">
          <mxGeometry x="240" y="330" width="40" height="40" as="geometry" />
        </mxCell>
        <mxCell id="ettVCxE4RoPoc0jnoljM-13" value="3&lt;br&gt;(1,03)" style="rounded=0;whiteSpace=wrap;html=1;fontSize=16;fillColor=#ffe6cc;strokeColor=#d79b00;" parent="1" vertex="1">
          <mxGeometry x="40" y="280" width="40" height="40" as="geometry" />
        </mxCell>
        <mxCell id="ettVCxE4RoPoc0jnoljM-14" value="14&lt;br&gt;(3,03)" style="rounded=0;whiteSpace=wrap;html=1;fontSize=16;fillColor=#d5e8d4;strokeColor=#82b366;" parent="1" vertex="1">
          <mxGeometry x="600" y="310" width="40" height="40" as="geometry" />
        </mxCell>
        <mxCell id="ettVCxE4RoPoc0jnoljM-15" value="13&lt;br&gt;(3,27)" style="rounded=0;whiteSpace=wrap;html=1;fontSize=16;fillColor=#d5e8d4;strokeColor=#82b366;" parent="1" vertex="1">
          <mxGeometry x="600" y="250" width="40" height="40" as="geometry" />
        </mxCell>
        <mxCell id="ettVCxE4RoPoc0jnoljM-16" value="11&lt;br&gt;(3,07)" style="rounded=0;whiteSpace=wrap;html=1;fontSize=16;fillColor=#dae8fc;strokeColor=#6c8ebf;" parent="1" vertex="1">
          <mxGeometry x="420" y="280" width="40" height="40" as="geometry" />
        </mxCell>
        <mxCell id="ettVCxE4RoPoc0jnoljM-18" value="18&lt;br&gt;(3,03)" style="rounded=0;whiteSpace=wrap;html=1;fontSize=16;fillColor=#d5e8d4;strokeColor=#82b366;" parent="1" vertex="1">
          <mxGeometry x="840" y="280" width="40" height="40" as="geometry" />
        </mxCell>
        <mxCell id="ettVCxE4RoPoc0jnoljM-19" value="17&lt;br&gt;(2,02)" style="rounded=0;whiteSpace=wrap;html=1;fontSize=16;fillColor=#d5e8d4;strokeColor=#82b366;" parent="1" vertex="1">
          <mxGeometry x="780" y="280" width="40" height="40" as="geometry" />
        </mxCell>
        <mxCell id="ettVCxE4RoPoc0jnoljM-20" value="15&lt;br&gt;(2,93)" style="rounded=0;whiteSpace=wrap;html=1;fontSize=16;fillColor=#d5e8d4;strokeColor=#82b366;" parent="1" vertex="1">
          <mxGeometry x="660" y="280" width="40" height="40" as="geometry" />
        </mxCell>
        <mxCell id="ettVCxE4RoPoc0jnoljM-25" value="" style="endArrow=classic;html=1;rounded=0;fontSize=12;startSize=8;endSize=8;curved=1;" parent="1" edge="1">
          <mxGeometry width="50" height="50" relative="1" as="geometry">
            <mxPoint x="-120" y="300" as="sourcePoint" />
            <mxPoint x="-80" y="299.5" as="targetPoint" />
          </mxGeometry>
        </mxCell>
        <mxCell id="ettVCxE4RoPoc0jnoljM-29" value="19&lt;br&gt;(2,17)" style="rounded=0;whiteSpace=wrap;html=1;fontSize=16;fillColor=#e1d5e7;strokeColor=#9673a6;" parent="1" vertex="1">
          <mxGeometry x="920" y="280" width="40" height="40" as="geometry" />
        </mxCell>
        <mxCell id="ettVCxE4RoPoc0jnoljM-30" value="20&lt;br&gt;(1,98)" style="rounded=0;whiteSpace=wrap;html=1;fontSize=16;fillColor=#e1d5e7;strokeColor=#9673a6;" parent="1" vertex="1">
          <mxGeometry x="980" y="280" width="40" height="40" as="geometry" />
        </mxCell>
        <mxCell id="ettVCxE4RoPoc0jnoljM-31" value="21&lt;br&gt;(3,17)" style="rounded=0;whiteSpace=wrap;html=1;fontSize=16;fillColor=#e1d5e7;strokeColor=#9673a6;" parent="1" vertex="1">
          <mxGeometry x="1040" y="280" width="40" height="40" as="geometry" />
        </mxCell>
        <mxCell id="ettVCxE4RoPoc0jnoljM-32" value="22&lt;br&gt;(4,18)" style="rounded=0;whiteSpace=wrap;html=1;fontSize=16;fillColor=#d80073;strokeColor=#A50040;fontColor=#ffffff;" parent="1" vertex="1">
          <mxGeometry x="1120" y="280" width="40" height="40" as="geometry" />
        </mxCell>
        <mxCell id="ettVCxE4RoPoc0jnoljM-33" value="26&lt;br&gt;(2,07)" style="rounded=0;whiteSpace=wrap;html=1;fontSize=16;fillColor=#d80073;strokeColor=#A50040;fontColor=#ffffff;" parent="1" vertex="1">
          <mxGeometry x="1310" y="250" width="40" height="40" as="geometry" />
        </mxCell>
        <mxCell id="ettVCxE4RoPoc0jnoljM-34" value="27&lt;br&gt;(2,05)" style="rounded=0;whiteSpace=wrap;html=1;fontSize=16;fillColor=#d80073;strokeColor=#A50040;fontColor=#ffffff;" parent="1" vertex="1">
          <mxGeometry x="1310" y="310" width="40" height="40" as="geometry" />
        </mxCell>
        <mxCell id="ettVCxE4RoPoc0jnoljM-35" value="25&lt;br&gt;(1,90)" style="rounded=0;whiteSpace=wrap;html=1;fontSize=16;fillColor=#d80073;strokeColor=#A50040;fontColor=#ffffff;" parent="1" vertex="1">
          <mxGeometry x="1240" y="310" width="40" height="40" as="geometry" />
        </mxCell>
        <mxCell id="ettVCxE4RoPoc0jnoljM-36" value="24&lt;br&gt;(2,03)" style="rounded=0;whiteSpace=wrap;html=1;fontSize=16;fillColor=#d80073;strokeColor=#A50040;fontColor=#ffffff;" parent="1" vertex="1">
          <mxGeometry x="1240" y="250" width="40" height="40" as="geometry" />
        </mxCell>
        <mxCell id="ettVCxE4RoPoc0jnoljM-37" value="23&lt;br&gt;(3,22)" style="rounded=0;whiteSpace=wrap;html=1;fontSize=16;fillColor=#d80073;strokeColor=#A50040;fontColor=#ffffff;" parent="1" vertex="1">
          <mxGeometry x="1180" y="280" width="40" height="40" as="geometry" />
        </mxCell>
        <mxCell id="ettVCxE4RoPoc0jnoljM-38" value="" style="endArrow=classic;html=1;rounded=0;fontSize=12;startSize=8;endSize=8;curved=1;" parent="1" edge="1">
          <mxGeometry width="50" height="50" relative="1" as="geometry">
            <mxPoint x="-40" y="299.76" as="sourcePoint" />
            <mxPoint x="-20" y="299.76" as="targetPoint" />
          </mxGeometry>
        </mxCell>
        <mxCell id="ettVCxE4RoPoc0jnoljM-39" value="" style="endArrow=classic;html=1;rounded=0;fontSize=12;startSize=8;endSize=8;curved=1;" parent="1" edge="1">
          <mxGeometry width="50" height="50" relative="1" as="geometry">
            <mxPoint x="20" y="299.86" as="sourcePoint" />
            <mxPoint x="40" y="299.86" as="targetPoint" />
          </mxGeometry>
        </mxCell>
        <mxCell id="ettVCxE4RoPoc0jnoljM-40" value="" style="endArrow=classic;html=1;rounded=0;fontSize=12;startSize=8;endSize=8;curved=1;" parent="1" edge="1">
          <mxGeometry width="50" height="50" relative="1" as="geometry">
            <mxPoint x="80" y="299.86" as="sourcePoint" />
            <mxPoint x="100" y="299.86" as="targetPoint" />
          </mxGeometry>
        </mxCell>
        <mxCell id="ettVCxE4RoPoc0jnoljM-41" value="" style="endArrow=classic;html=1;rounded=0;fontSize=12;startSize=8;endSize=8;curved=1;" parent="1" edge="1">
          <mxGeometry width="50" height="50" relative="1" as="geometry">
            <mxPoint x="140" y="299.86" as="sourcePoint" />
            <mxPoint x="160" y="299.86" as="targetPoint" />
          </mxGeometry>
        </mxCell>
        <mxCell id="ettVCxE4RoPoc0jnoljM-42" value="" style="endArrow=classic;html=1;rounded=0;fontSize=12;startSize=8;endSize=8;curved=1;" parent="1" edge="1">
          <mxGeometry width="50" height="50" relative="1" as="geometry">
            <mxPoint x="200" y="290" as="sourcePoint" />
            <mxPoint x="240" y="260" as="targetPoint" />
          </mxGeometry>
        </mxCell>
        <mxCell id="ettVCxE4RoPoc0jnoljM-43" value="" style="endArrow=classic;html=1;rounded=0;fontSize=12;startSize=8;endSize=8;curved=1;entryX=0;entryY=0.5;entryDx=0;entryDy=0;" parent="1" target="ettVCxE4RoPoc0jnoljM-5" edge="1">
          <mxGeometry width="50" height="50" relative="1" as="geometry">
            <mxPoint x="200" y="299.86" as="sourcePoint" />
            <mxPoint x="230" y="300.1" as="targetPoint" />
          </mxGeometry>
        </mxCell>
        <mxCell id="ettVCxE4RoPoc0jnoljM-44" value="" style="endArrow=classic;html=1;rounded=0;fontSize=12;startSize=8;endSize=8;curved=1;entryX=0;entryY=0.5;entryDx=0;entryDy=0;exitX=1.026;exitY=0.842;exitDx=0;exitDy=0;exitPerimeter=0;" parent="1" source="ettVCxE4RoPoc0jnoljM-9" target="ettVCxE4RoPoc0jnoljM-12" edge="1">
          <mxGeometry width="50" height="50" relative="1" as="geometry">
            <mxPoint x="200" y="320" as="sourcePoint" />
            <mxPoint x="220" y="350.14" as="targetPoint" />
          </mxGeometry>
        </mxCell>
        <mxCell id="ettVCxE4RoPoc0jnoljM-47" value="" style="endArrow=classic;html=1;rounded=0;fontSize=12;startSize=8;endSize=8;curved=1;" parent="1" edge="1">
          <mxGeometry width="50" height="50" relative="1" as="geometry">
            <mxPoint x="340" y="299.89" as="sourcePoint" />
            <mxPoint x="360" y="299.89" as="targetPoint" />
          </mxGeometry>
        </mxCell>
        <mxCell id="ettVCxE4RoPoc0jnoljM-48" value="" style="endArrow=classic;html=1;rounded=0;fontSize=12;startSize=8;endSize=8;curved=1;" parent="1" edge="1">
          <mxGeometry width="50" height="50" relative="1" as="geometry">
            <mxPoint x="400" y="299.89" as="sourcePoint" />
            <mxPoint x="420" y="299.89" as="targetPoint" />
          </mxGeometry>
        </mxCell>
        <mxCell id="ettVCxE4RoPoc0jnoljM-49" value="" style="endArrow=classic;html=1;rounded=0;fontSize=12;startSize=8;endSize=8;curved=1;entryX=0;entryY=0.5;entryDx=0;entryDy=0;" parent="1" target="ettVCxE4RoPoc0jnoljM-4" edge="1">
          <mxGeometry width="50" height="50" relative="1" as="geometry">
            <mxPoint x="280" y="340" as="sourcePoint" />
            <mxPoint x="290" y="310" as="targetPoint" />
          </mxGeometry>
        </mxCell>
        <mxCell id="ettVCxE4RoPoc0jnoljM-50" value="" style="endArrow=classic;html=1;rounded=0;fontSize=12;startSize=8;endSize=8;curved=1;entryX=0;entryY=0.5;entryDx=0;entryDy=0;" parent="1" target="ettVCxE4RoPoc0jnoljM-10" edge="1">
          <mxGeometry width="50" height="50" relative="1" as="geometry">
            <mxPoint x="460" y="299.89" as="sourcePoint" />
            <mxPoint x="500" y="300.03" as="targetPoint" />
          </mxGeometry>
        </mxCell>
        <mxCell id="ettVCxE4RoPoc0jnoljM-51" value="" style="endArrow=classic;html=1;rounded=0;fontSize=12;startSize=8;endSize=8;curved=1;entryX=0;entryY=0.5;entryDx=0;entryDy=0;" parent="1" target="ettVCxE4RoPoc0jnoljM-15" edge="1">
          <mxGeometry width="50" height="50" relative="1" as="geometry">
            <mxPoint x="550" y="290" as="sourcePoint" />
            <mxPoint x="600" y="290.11" as="targetPoint" />
          </mxGeometry>
        </mxCell>
        <mxCell id="ettVCxE4RoPoc0jnoljM-53" value="" style="endArrow=classic;html=1;rounded=0;fontSize=12;startSize=8;endSize=8;curved=1;" parent="1" edge="1">
          <mxGeometry width="50" height="50" relative="1" as="geometry">
            <mxPoint x="640" y="269.66999999999996" as="sourcePoint" />
            <mxPoint x="660" y="290" as="targetPoint" />
          </mxGeometry>
        </mxCell>
        <mxCell id="ettVCxE4RoPoc0jnoljM-54" value="" style="endArrow=classic;html=1;rounded=0;fontSize=12;startSize=8;endSize=8;curved=1;" parent="1" edge="1">
          <mxGeometry width="50" height="50" relative="1" as="geometry">
            <mxPoint x="640" y="320" as="sourcePoint" />
            <mxPoint x="660" y="310" as="targetPoint" />
          </mxGeometry>
        </mxCell>
        <mxCell id="ettVCxE4RoPoc0jnoljM-57" value="" style="endArrow=classic;html=1;rounded=0;fontSize=12;startSize=8;endSize=8;curved=1;" parent="1" edge="1">
          <mxGeometry width="50" height="50" relative="1" as="geometry">
            <mxPoint x="960" y="299.8" as="sourcePoint" />
            <mxPoint x="980" y="299.8" as="targetPoint" />
          </mxGeometry>
        </mxCell>
        <mxCell id="ettVCxE4RoPoc0jnoljM-58" value="" style="endArrow=classic;html=1;rounded=0;fontSize=12;startSize=8;endSize=8;curved=1;" parent="1" edge="1">
          <mxGeometry width="50" height="50" relative="1" as="geometry">
            <mxPoint x="820" y="299.71" as="sourcePoint" />
            <mxPoint x="840" y="299.71" as="targetPoint" />
          </mxGeometry>
        </mxCell>
        <mxCell id="ettVCxE4RoPoc0jnoljM-59" value="" style="endArrow=classic;html=1;rounded=0;fontSize=12;startSize=8;endSize=8;curved=1;" parent="1" edge="1">
          <mxGeometry width="50" height="50" relative="1" as="geometry">
            <mxPoint x="760" y="299.71" as="sourcePoint" />
            <mxPoint x="780" y="299.71" as="targetPoint" />
          </mxGeometry>
        </mxCell>
        <mxCell id="ettVCxE4RoPoc0jnoljM-60" value="" style="endArrow=classic;html=1;rounded=0;fontSize=12;startSize=8;endSize=8;curved=1;" parent="1" edge="1">
          <mxGeometry width="50" height="50" relative="1" as="geometry">
            <mxPoint x="700" y="299.71" as="sourcePoint" />
            <mxPoint x="720" y="299.71" as="targetPoint" />
          </mxGeometry>
        </mxCell>
        <mxCell id="ettVCxE4RoPoc0jnoljM-61" value="" style="endArrow=classic;html=1;rounded=0;fontSize=12;startSize=8;endSize=8;curved=1;entryX=0;entryY=0.5;entryDx=0;entryDy=0;" parent="1" edge="1">
          <mxGeometry width="50" height="50" relative="1" as="geometry">
            <mxPoint x="880" y="299.71" as="sourcePoint" />
            <mxPoint x="920" y="299.82" as="targetPoint" />
          </mxGeometry>
        </mxCell>
        <mxCell id="ettVCxE4RoPoc0jnoljM-62" value="" style="endArrow=classic;html=1;rounded=0;fontSize=12;startSize=8;endSize=8;curved=1;" parent="1" edge="1">
          <mxGeometry width="50" height="50" relative="1" as="geometry">
            <mxPoint x="1020" y="299.8" as="sourcePoint" />
            <mxPoint x="1040" y="299.8" as="targetPoint" />
          </mxGeometry>
        </mxCell>
        <mxCell id="ettVCxE4RoPoc0jnoljM-63" value="" style="endArrow=classic;html=1;rounded=0;fontSize=12;startSize=8;endSize=8;curved=1;" parent="1" edge="1">
          <mxGeometry width="50" height="50" relative="1" as="geometry">
            <mxPoint x="1080" y="299.8" as="sourcePoint" />
            <mxPoint x="1120" y="299.8" as="targetPoint" />
          </mxGeometry>
        </mxCell>
        <mxCell id="ettVCxE4RoPoc0jnoljM-64" value="" style="endArrow=classic;html=1;rounded=0;fontSize=12;startSize=8;endSize=8;curved=1;" parent="1" edge="1">
          <mxGeometry width="50" height="50" relative="1" as="geometry">
            <mxPoint x="1160" y="299.8" as="sourcePoint" />
            <mxPoint x="1180" y="299.8" as="targetPoint" />
          </mxGeometry>
        </mxCell>
        <mxCell id="ettVCxE4RoPoc0jnoljM-67" value="" style="endArrow=classic;html=1;rounded=0;fontSize=12;startSize=8;endSize=8;curved=1;" parent="1" edge="1">
          <mxGeometry width="50" height="50" relative="1" as="geometry">
            <mxPoint x="1220" y="290" as="sourcePoint" />
            <mxPoint x="1240" y="280" as="targetPoint" />
          </mxGeometry>
        </mxCell>
        <mxCell id="ettVCxE4RoPoc0jnoljM-68" value="" style="endArrow=classic;html=1;rounded=0;fontSize=12;startSize=8;endSize=8;curved=1;" parent="1" edge="1">
          <mxGeometry width="50" height="50" relative="1" as="geometry">
            <mxPoint x="1220" y="320" as="sourcePoint" />
            <mxPoint x="1240" y="330" as="targetPoint" />
          </mxGeometry>
        </mxCell>
        <mxCell id="ettVCxE4RoPoc0jnoljM-72" value="" style="endArrow=classic;html=1;rounded=0;fontSize=12;startSize=8;endSize=8;curved=1;entryX=-0.07;entryY=0.66;entryDx=0;entryDy=0;entryPerimeter=0;" parent="1" target="ettVCxE4RoPoc0jnoljM-33" edge="1">
          <mxGeometry width="50" height="50" relative="1" as="geometry">
            <mxPoint x="1280" y="315" as="sourcePoint" />
            <mxPoint x="1300" y="285" as="targetPoint" />
          </mxGeometry>
        </mxCell>
        <mxCell id="ettVCxE4RoPoc0jnoljM-73" value="" style="endArrow=classic;html=1;rounded=0;fontSize=12;startSize=8;endSize=8;curved=1;entryX=0;entryY=0.5;entryDx=0;entryDy=0;" parent="1" target="ettVCxE4RoPoc0jnoljM-14" edge="1">
          <mxGeometry width="50" height="50" relative="1" as="geometry">
            <mxPoint x="550" y="310" as="sourcePoint" />
            <mxPoint x="590" y="330" as="targetPoint" />
          </mxGeometry>
        </mxCell>
        <mxCell id="ettVCxE4RoPoc0jnoljM-75" value="" style="endArrow=classic;html=1;rounded=0;fontSize=12;startSize=8;endSize=8;curved=1;" parent="1" edge="1">
          <mxGeometry width="50" height="50" relative="1" as="geometry">
            <mxPoint x="1280" y="329.71" as="sourcePoint" />
            <mxPoint x="1310" y="329.71" as="targetPoint" />
          </mxGeometry>
        </mxCell>
        <mxCell id="o1U5H99hpYvZ7t6X2Nu4-1" value="1&lt;br&gt;(2,07)" style="rounded=0;whiteSpace=wrap;html=1;fontSize=16;fillColor=#ffe6cc;strokeColor=#d79b00;" parent="1" vertex="1">
          <mxGeometry x="-160" y="440" width="40" height="40" as="geometry" />
        </mxCell>
        <mxCell id="o1U5H99hpYvZ7t6X2Nu4-2" value="2&lt;br&gt;(1,27)" style="rounded=0;whiteSpace=wrap;html=1;fontSize=16;fillColor=#ffe6cc;strokeColor=#d79b00;" parent="1" vertex="1">
          <mxGeometry x="-90" y="440" width="40" height="40" as="geometry" />
        </mxCell>
        <mxCell id="o1U5H99hpYvZ7t6X2Nu4-3" value="3&lt;br&gt;(1,03)" style="rounded=0;whiteSpace=wrap;html=1;fontSize=16;fillColor=#ffe6cc;strokeColor=#d79b00;" parent="1" vertex="1">
          <mxGeometry x="-20" y="440" width="40" height="40" as="geometry" />
        </mxCell>
        <mxCell id="o1U5H99hpYvZ7t6X2Nu4-4" value="4&lt;br&gt;(0,98)" style="rounded=0;whiteSpace=wrap;html=1;fontSize=16;fillColor=#ffe6cc;strokeColor=#d79b00;" parent="1" vertex="1">
          <mxGeometry x="50" y="440" width="40" height="40" as="geometry" />
        </mxCell>
        <mxCell id="o1U5H99hpYvZ7t6X2Nu4-5" value="5&lt;br&gt;(1,03)" style="rounded=0;whiteSpace=wrap;html=1;fontSize=16;fillColor=#ffe6cc;strokeColor=#d79b00;" parent="1" vertex="1">
          <mxGeometry x="120" y="440" width="40" height="40" as="geometry" />
        </mxCell>
        <mxCell id="o1U5H99hpYvZ7t6X2Nu4-6" value="8&lt;br&gt;(4,10)" style="rounded=0;whiteSpace=wrap;html=1;fontSize=16;fillColor=#dae8fc;strokeColor=#6c8ebf;" parent="1" vertex="1">
          <mxGeometry x="190" y="440" width="40" height="40" as="geometry" />
        </mxCell>
        <mxCell id="o1U5H99hpYvZ7t6X2Nu4-7" value="9&lt;br&gt;(3,10)" style="rounded=0;whiteSpace=wrap;html=1;fontSize=16;fillColor=#dae8fc;strokeColor=#6c8ebf;" parent="1" vertex="1">
          <mxGeometry x="255" y="440" width="40" height="40" as="geometry" />
        </mxCell>
        <mxCell id="o1U5H99hpYvZ7t6X2Nu4-8" value="10&lt;br&gt;(2,03)" style="rounded=0;whiteSpace=wrap;html=1;fontSize=16;fillColor=#dae8fc;strokeColor=#6c8ebf;" parent="1" vertex="1">
          <mxGeometry x="325" y="440" width="40" height="40" as="geometry" />
        </mxCell>
        <mxCell id="o1U5H99hpYvZ7t6X2Nu4-9" value="12&lt;br&gt;(3,07)" style="rounded=0;whiteSpace=wrap;html=1;fontSize=16;fillColor=#f8cecc;strokeColor=#b85450;" parent="1" vertex="1">
          <mxGeometry x="395" y="440" width="40" height="40" as="geometry" />
        </mxCell>
        <mxCell id="o1U5H99hpYvZ7t6X2Nu4-10" value="13&lt;br&gt;(3,27)" style="rounded=0;whiteSpace=wrap;html=1;fontSize=16;fillColor=#d5e8d4;strokeColor=#82b366;" parent="1" vertex="1">
          <mxGeometry x="465" y="440" width="40" height="40" as="geometry" />
        </mxCell>
        <mxCell id="o1U5H99hpYvZ7t6X2Nu4-11" value="15&lt;br&gt;(2,93)" style="rounded=0;whiteSpace=wrap;html=1;fontSize=16;fillColor=#d5e8d4;strokeColor=#82b366;" parent="1" vertex="1">
          <mxGeometry x="535" y="440" width="40" height="40" as="geometry" />
        </mxCell>
        <mxCell id="o1U5H99hpYvZ7t6X2Nu4-12" value="16&lt;br&gt;(3,08)" style="rounded=0;whiteSpace=wrap;html=1;fontSize=16;fillColor=#d5e8d4;strokeColor=#82b366;" parent="1" vertex="1">
          <mxGeometry x="605" y="440" width="40" height="40" as="geometry" />
        </mxCell>
        <mxCell id="o1U5H99hpYvZ7t6X2Nu4-13" value="17&lt;br&gt;(2,02)" style="rounded=0;whiteSpace=wrap;html=1;fontSize=16;fillColor=#d5e8d4;strokeColor=#82b366;" parent="1" vertex="1">
          <mxGeometry x="675" y="440" width="40" height="40" as="geometry" />
        </mxCell>
        <mxCell id="o1U5H99hpYvZ7t6X2Nu4-14" value="18&lt;br&gt;(3,03)" style="rounded=0;whiteSpace=wrap;html=1;fontSize=16;fillColor=#d5e8d4;strokeColor=#82b366;" parent="1" vertex="1">
          <mxGeometry x="745" y="440" width="40" height="40" as="geometry" />
        </mxCell>
        <mxCell id="o1U5H99hpYvZ7t6X2Nu4-15" value="19&lt;br&gt;(2,17)" style="rounded=0;whiteSpace=wrap;html=1;fontSize=16;fillColor=#e1d5e7;strokeColor=#9673a6;" parent="1" vertex="1">
          <mxGeometry x="815" y="440" width="40" height="40" as="geometry" />
        </mxCell>
        <mxCell id="o1U5H99hpYvZ7t6X2Nu4-16" value="20&lt;br&gt;(1,98)" style="rounded=0;whiteSpace=wrap;html=1;fontSize=16;fillColor=#e1d5e7;strokeColor=#9673a6;" parent="1" vertex="1">
          <mxGeometry x="885" y="440" width="40" height="40" as="geometry" />
        </mxCell>
        <mxCell id="o1U5H99hpYvZ7t6X2Nu4-17" value="21&lt;br&gt;(3,17)" style="rounded=0;whiteSpace=wrap;html=1;fontSize=16;fillColor=#e1d5e7;strokeColor=#9673a6;" parent="1" vertex="1">
          <mxGeometry x="960" y="440" width="40" height="40" as="geometry" />
        </mxCell>
        <mxCell id="o1U5H99hpYvZ7t6X2Nu4-18" value="22&lt;br&gt;(4,18)" style="rounded=0;whiteSpace=wrap;html=1;fontSize=16;fillColor=#d80073;strokeColor=#A50040;fontColor=#ffffff;" parent="1" vertex="1">
          <mxGeometry x="1030" y="440" width="40" height="40" as="geometry" />
        </mxCell>
        <mxCell id="o1U5H99hpYvZ7t6X2Nu4-19" value="23&lt;br&gt;(3,22)" style="rounded=0;whiteSpace=wrap;html=1;fontSize=16;fillColor=#d80073;strokeColor=#A50040;fontColor=#ffffff;" parent="1" vertex="1">
          <mxGeometry x="1100" y="440" width="40" height="40" as="geometry" />
        </mxCell>
        <mxCell id="o1U5H99hpYvZ7t6X2Nu4-20" value="25&lt;br&gt;(1,90)" style="rounded=0;whiteSpace=wrap;html=1;fontSize=16;fillColor=#d80073;strokeColor=#A50040;fontColor=#ffffff;" parent="1" vertex="1">
          <mxGeometry x="1170" y="440" width="40" height="40" as="geometry" />
        </mxCell>
        <mxCell id="o1U5H99hpYvZ7t6X2Nu4-21" value="26&lt;br&gt;(2,07)" style="rounded=0;whiteSpace=wrap;html=1;fontSize=16;fillColor=#d80073;strokeColor=#A50040;fontColor=#ffffff;" parent="1" vertex="1">
          <mxGeometry x="1240" y="440" width="40" height="40" as="geometry" />
        </mxCell>
        <mxCell id="OGpuvNn6dXuk6ZiF5HYo-1" value="51,7" style="rounded=0;whiteSpace=wrap;html=1;fontSize=16;fillColor=#008a00;fontColor=#ffffff;strokeColor=#005700;" parent="1" vertex="1">
          <mxGeometry x="1380" y="440" width="50" height="40" as="geometry" />
        </mxCell>
        <mxCell id="OGpuvNn6dXuk6ZiF5HYo-2" value="&lt;b&gt;&lt;font style=&quot;font-size: 19px;&quot;&gt;=&lt;/font&gt;&lt;/b&gt;" style="rounded=0;whiteSpace=wrap;html=1;fontSize=16;fillColor=#e3c800;fontColor=#000000;strokeColor=#B09500;" parent="1" vertex="1">
          <mxGeometry x="1310" y="440" width="40" height="40" as="geometry" />
        </mxCell>
        <mxCell id="OGpuvNn6dXuk6ZiF5HYo-3" value="&lt;b&gt;+&lt;/b&gt;" style="text;html=1;align=center;verticalAlign=middle;resizable=0;points=[];autosize=1;strokeColor=none;fillColor=none;fontSize=16;" parent="1" vertex="1">
          <mxGeometry x="-120" y="445" width="30" height="30" as="geometry" />
        </mxCell>
        <mxCell id="OGpuvNn6dXuk6ZiF5HYo-4" value="&lt;b&gt;+&lt;/b&gt;" style="text;html=1;align=center;verticalAlign=middle;resizable=0;points=[];autosize=1;strokeColor=none;fillColor=none;fontSize=16;" parent="1" vertex="1">
          <mxGeometry x="-50" y="445" width="30" height="30" as="geometry" />
        </mxCell>
        <mxCell id="OGpuvNn6dXuk6ZiF5HYo-5" value="&lt;b&gt;+&lt;/b&gt;" style="text;html=1;align=center;verticalAlign=middle;resizable=0;points=[];autosize=1;strokeColor=none;fillColor=none;fontSize=16;" parent="1" vertex="1">
          <mxGeometry x="20" y="445" width="30" height="30" as="geometry" />
        </mxCell>
        <mxCell id="OGpuvNn6dXuk6ZiF5HYo-6" value="&lt;b&gt;+&lt;/b&gt;" style="text;html=1;align=center;verticalAlign=middle;resizable=0;points=[];autosize=1;strokeColor=none;fillColor=none;fontSize=16;" parent="1" vertex="1">
          <mxGeometry x="90" y="445" width="30" height="30" as="geometry" />
        </mxCell>
        <mxCell id="OGpuvNn6dXuk6ZiF5HYo-7" value="&lt;b&gt;+&lt;/b&gt;" style="text;html=1;align=center;verticalAlign=middle;resizable=0;points=[];autosize=1;strokeColor=none;fillColor=none;fontSize=16;" parent="1" vertex="1">
          <mxGeometry x="230" y="445" width="30" height="30" as="geometry" />
        </mxCell>
        <mxCell id="OGpuvNn6dXuk6ZiF5HYo-8" value="&lt;b&gt;+&lt;/b&gt;" style="text;html=1;align=center;verticalAlign=middle;resizable=0;points=[];autosize=1;strokeColor=none;fillColor=none;fontSize=16;" parent="1" vertex="1">
          <mxGeometry x="160" y="445" width="30" height="30" as="geometry" />
        </mxCell>
        <mxCell id="OGpuvNn6dXuk6ZiF5HYo-9" value="&lt;b&gt;+&lt;/b&gt;" style="text;html=1;align=center;verticalAlign=middle;resizable=0;points=[];autosize=1;strokeColor=none;fillColor=none;fontSize=16;" parent="1" vertex="1">
          <mxGeometry x="575" y="445" width="30" height="30" as="geometry" />
        </mxCell>
        <mxCell id="OGpuvNn6dXuk6ZiF5HYo-10" value="&lt;b&gt;+&lt;/b&gt;" style="text;html=1;align=center;verticalAlign=middle;resizable=0;points=[];autosize=1;strokeColor=none;fillColor=none;fontSize=16;" parent="1" vertex="1">
          <mxGeometry x="645" y="445" width="30" height="30" as="geometry" />
        </mxCell>
        <mxCell id="OGpuvNn6dXuk6ZiF5HYo-11" value="&lt;b&gt;+&lt;/b&gt;" style="text;html=1;align=center;verticalAlign=middle;resizable=0;points=[];autosize=1;strokeColor=none;fillColor=none;fontSize=16;" parent="1" vertex="1">
          <mxGeometry x="505" y="445" width="30" height="30" as="geometry" />
        </mxCell>
        <mxCell id="OGpuvNn6dXuk6ZiF5HYo-12" value="&lt;b&gt;+&lt;/b&gt;" style="text;html=1;align=center;verticalAlign=middle;resizable=0;points=[];autosize=1;strokeColor=none;fillColor=none;fontSize=16;" parent="1" vertex="1">
          <mxGeometry x="295" y="445" width="30" height="30" as="geometry" />
        </mxCell>
        <mxCell id="OGpuvNn6dXuk6ZiF5HYo-13" value="&lt;b&gt;+&lt;/b&gt;" style="text;html=1;align=center;verticalAlign=middle;resizable=0;points=[];autosize=1;strokeColor=none;fillColor=none;fontSize=16;" parent="1" vertex="1">
          <mxGeometry x="435" y="445" width="30" height="30" as="geometry" />
        </mxCell>
        <mxCell id="OGpuvNn6dXuk6ZiF5HYo-14" value="&lt;b&gt;+&lt;/b&gt;" style="text;html=1;align=center;verticalAlign=middle;resizable=0;points=[];autosize=1;strokeColor=none;fillColor=none;fontSize=16;" parent="1" vertex="1">
          <mxGeometry x="365" y="445" width="30" height="30" as="geometry" />
        </mxCell>
        <mxCell id="OGpuvNn6dXuk6ZiF5HYo-15" value="&lt;b&gt;+&lt;/b&gt;" style="text;html=1;align=center;verticalAlign=middle;resizable=0;points=[];autosize=1;strokeColor=none;fillColor=none;fontSize=16;" parent="1" vertex="1">
          <mxGeometry x="925" y="445" width="30" height="30" as="geometry" />
        </mxCell>
        <mxCell id="OGpuvNn6dXuk6ZiF5HYo-16" value="&lt;b&gt;+&lt;/b&gt;" style="text;html=1;align=center;verticalAlign=middle;resizable=0;points=[];autosize=1;strokeColor=none;fillColor=none;fontSize=16;" parent="1" vertex="1">
          <mxGeometry x="855" y="445" width="30" height="30" as="geometry" />
        </mxCell>
        <mxCell id="OGpuvNn6dXuk6ZiF5HYo-17" value="&lt;b&gt;+&lt;/b&gt;" style="text;html=1;align=center;verticalAlign=middle;resizable=0;points=[];autosize=1;strokeColor=none;fillColor=none;fontSize=16;" parent="1" vertex="1">
          <mxGeometry x="1000" y="445" width="30" height="30" as="geometry" />
        </mxCell>
        <mxCell id="OGpuvNn6dXuk6ZiF5HYo-18" value="&lt;b&gt;+&lt;/b&gt;" style="text;html=1;align=center;verticalAlign=middle;resizable=0;points=[];autosize=1;strokeColor=none;fillColor=none;fontSize=16;" parent="1" vertex="1">
          <mxGeometry x="715" y="445" width="30" height="30" as="geometry" />
        </mxCell>
        <mxCell id="OGpuvNn6dXuk6ZiF5HYo-19" value="&lt;b&gt;+&lt;/b&gt;" style="text;html=1;align=center;verticalAlign=middle;resizable=0;points=[];autosize=1;strokeColor=none;fillColor=none;fontSize=16;" parent="1" vertex="1">
          <mxGeometry x="785" y="445" width="30" height="30" as="geometry" />
        </mxCell>
        <mxCell id="OGpuvNn6dXuk6ZiF5HYo-20" value="&lt;b&gt;+&lt;/b&gt;" style="text;html=1;align=center;verticalAlign=middle;resizable=0;points=[];autosize=1;strokeColor=none;fillColor=none;fontSize=16;" parent="1" vertex="1">
          <mxGeometry x="1070" y="445" width="30" height="30" as="geometry" />
        </mxCell>
        <mxCell id="OGpuvNn6dXuk6ZiF5HYo-21" value="&lt;b&gt;+&lt;/b&gt;" style="text;html=1;align=center;verticalAlign=middle;resizable=0;points=[];autosize=1;strokeColor=none;fillColor=none;fontSize=16;" parent="1" vertex="1">
          <mxGeometry x="1210" y="445" width="30" height="30" as="geometry" />
        </mxCell>
        <mxCell id="OGpuvNn6dXuk6ZiF5HYo-22" value="&lt;b&gt;+&lt;/b&gt;" style="text;html=1;align=center;verticalAlign=middle;resizable=0;points=[];autosize=1;strokeColor=none;fillColor=none;fontSize=16;" parent="1" vertex="1">
          <mxGeometry x="1140" y="445" width="30" height="30" as="geometry" />
        </mxCell>
      </root>
    </mxGraphModel>
  </diagram>
</mxfile>
